<svg xmlns="http://www.w3.org/2000/svg" width="160" height="160" viewBox="0 0 799 800">
  <metadata><?xpacket begin="﻿" id="W5M0MpCehiHzreSzNTczkc9d"?>
<x:xmpmeta xmlns:x="adobe:ns:meta/" x:xmptk="Adobe XMP Core 5.6-c138 79.159824, 2016/09/14-01:09:01        ">
   <rdf:RDF xmlns:rdf="http://www.w3.org/1999/02/22-rdf-syntax-ns#">
      <rdf:Description rdf:about=""/>
   </rdf:RDF>
</x:xmpmeta>
<?xpacket end="w"?></metadata>
  <path class="emoji-svg" d="M401,0C180.44,0,1,179.44,1,400S180.44,800,401,800,801,620.56,801,400,621.56,0,401,0Zm0,756.756A356.952,356.952,0,0,1,44.244,400C44.244,203.284,204.284,43.244,401,43.244A356.858,356.858,0,0,1,757.756,400C757.756,596.716,597.716,756.756,401,756.756Zm76.355-264.882a148.986,148.986,0,0,1,100.228,21.9l23.185-36.5a192.3,192.3,0,0,0-129.359-28.23c-72.25,10.038-133.612,61.308-156.326,130.621l41.095,13.465A150.034,150.034,0,0,1,477.355,491.874Zm-209.689-221.6a43.244,43.244,0,1,1-43.244,43.243A43.242,43.242,0,0,1,267.666,270.269Zm267.571,0a43.244,43.244,0,1,1-43.244,43.243A43.242,43.242,0,0,1,535.237,270.269Z" transform="translate(-1)"/>
</svg>
