<svg
  xmlns="http://www.w3.org/2000/svg"
  width="24"
  height="20"
  viewBox="0 0 24 20"
>
  <path
    id="repeat"
    class="cls-1"
    d="M24,2V8a1,1,0,0,1-1,1H17a1,1,0,0,1,0-2h3.372c-1.346-1.312-2.408-2.35-2.709-2.65l-0.007-.007a7.993,7.993,0,0,0-11.314,0c-0.067.067-.133,0.135-0.2,0.2A7.932,7.932,0,0,0,4.635,6.872c-0.056.157-.125,0.309-0.181,0.466a1,1,0,0,1-1.887-.661c0.076-.219.161-0.435,0.253-0.647A9.959,9.959,0,0,1,4.683,3.184q0.121-.13.246-0.255A9.959,9.959,0,0,1,10.091.183a10.025,10.025,0,0,1,5.672.549,9.935,9.935,0,0,1,3.309,2.2l0.015,0.015c0.321,0.32,1.476,1.449,2.914,2.85V2A1,1,0,0,1,24,2ZM1,19a1,1,0,0,0,1-1V14.206c1.438,1.4,2.594,2.53,2.914,2.85l0.015,0.015a9.959,9.959,0,0,0,5.162,2.746,10.035,10.035,0,0,0,5.672-.549,9.935,9.935,0,0,0,3.309-2.2q0.126-.125.246-0.255a9.959,9.959,0,0,0,1.863-2.845c0.092-.212.178-0.428,0.253-0.647a1,1,0,0,0-1.887-.661c-0.055.157-.125,0.309-0.181,0.466a8.057,8.057,0,0,1-4.355,4.286,7.993,7.993,0,0,1-8.668-1.758L6.336,15.65c-0.3-.3-1.363-1.338-2.708-2.65H7a1,1,0,0,0,0-2H1a1,1,0,0,0-1,1v6A1,1,0,0,0,1,19Z"
  />
</svg>
